<svg width="1200" height="251" viewBox="0 0 1200 251" fill="none" xmlns="http://www.w3.org/2000/svg">
<svg width="1200" height="251" viewBox="0 0 1200 251" fill="none" xmlns="http://www.w3.org/2000/svg">
<path d="M12.0594 71H55.2594C74.4594 71 89.9794 76.2267 101.819 86.68C113.659 97.0267 119.579 110.467 119.579 127C119.579 143.427 113.659 156.867 101.819 167.32C89.9794 177.773 74.4594 183 55.2594 183H12.0594V176.6H24.8594V77.4H12.0594V71ZM55.2594 77.4H48.8594V176.6H55.2594C67.6327 176.6 77.286 172.173 84.2194 163.32C91.2594 154.36 94.7794 142.253 94.7794 127C94.7794 111.747 91.2594 99.6933 84.2194 90.84C77.286 81.88 67.6327 77.4 55.2594 77.4ZM169.856 146.04C176.789 145.4 182.122 142.787 185.856 138.2C189.696 133.507 191.616 128.813 191.616 124.12C191.616 119.32 190.549 115.64 188.416 113.08C186.389 110.52 183.242 109.24 178.976 109.24C174.816 109.24 170.816 112.227 166.976 118.2C163.136 124.173 161.216 132.173 161.216 142.2C161.216 152.227 163.029 160.28 166.656 166.36C170.282 172.44 175.456 175.48 182.176 175.48C192.416 175.48 201.109 171.48 208.256 163.48L212.736 166.36C209.109 172.12 204.309 176.76 198.336 180.28C192.362 183.693 185.642 185.4 178.176 185.4C165.482 185.4 155.349 181.24 147.776 172.92C140.202 164.493 136.416 154.36 136.416 142.52C136.416 130.68 140.416 120.76 148.416 112.76C156.522 104.653 167.722 100.6 182.016 100.6C191.402 100.6 198.762 102.787 204.096 107.16C209.429 111.533 212.096 117.08 212.096 123.8C212.096 130.52 209.109 136.76 203.136 142.52C197.269 148.173 189.482 151 179.776 151C176.469 151 173.269 150.627 170.176 149.88L169.856 146.04ZM249.484 116.12C246.924 112.173 245.644 108.653 245.644 105.56C245.644 102.467 246.818 99.7467 249.164 97.4C251.618 94.9467 254.551 93.72 257.964 93.72C261.378 93.72 264.258 94.9467 266.604 97.4C269.058 99.7467 270.284 102.573 270.284 105.88C270.284 109.187 268.631 112.707 265.324 116.44C274.071 122.84 280.791 129.133 285.484 135.32C290.178 141.4 292.524 148.493 292.524 156.6C292.524 164.6 289.484 171.427 283.404 177.08C277.324 182.627 268.684 185.4 257.484 185.4C252.364 185.4 247.191 184.28 241.964 182.04C236.844 179.8 232.951 177.027 230.284 173.72L233.964 169.88C238.658 173.613 243.724 175.48 249.164 175.48C254.604 175.48 259.031 174.04 262.444 171.16C265.964 168.173 267.724 163.587 267.724 157.4C267.724 147.587 264.098 137.347 256.844 126.68L232.684 156.92L228.684 153.4C236.791 140.28 243.724 127.853 249.484 116.12ZM321.906 84.92C319.452 82.36 318.226 79.32 318.226 75.8C318.226 72.28 319.452 69.2933 321.906 66.84C324.466 64.28 327.506 63 331.026 63C334.546 63 337.532 64.28 339.986 66.84C342.546 69.2933 343.826 72.28 343.826 75.8C343.826 79.32 342.546 82.36 339.986 84.92C337.532 87.3733 334.546 88.6 331.026 88.6C327.506 88.6 324.466 87.3733 321.906 84.92ZM327.986 100.6C338.012 100.6 343.026 104.92 343.026 113.56V165.24C343.026 168.12 343.719 170.413 345.106 172.12C346.492 173.72 348.626 174.52 351.506 174.52C354.386 174.52 357.692 172.973 361.426 169.88L364.306 173.72C355.772 181.507 347.239 185.4 338.706 185.4C325.586 185.4 319.026 177.56 319.026 161.88V108.28C313.159 109.773 308.679 112.387 305.586 116.12L301.266 111.16C304.359 107.96 308.252 105.4 312.946 103.48C317.746 101.56 322.759 100.6 327.986 100.6ZM428.212 204.12H398.612C382.932 204.12 375.092 197.56 375.092 184.44C375.092 177.293 379.039 169.24 386.932 160.28C378.292 153.987 373.972 145.293 373.972 134.2C373.972 124.707 377.439 116.76 384.372 110.36C391.305 103.853 400.372 100.6 411.572 100.6C419.679 100.6 426.879 102.467 433.172 106.2C437.759 102.04 440.905 96.6 442.612 89.88L448.852 91.48C446.932 98.9467 443.412 105.133 438.292 110.04C445.545 116.653 449.172 124.707 449.172 134.2C449.172 143.693 445.705 151.693 438.772 158.2C431.839 164.6 422.772 167.8 411.572 167.8C403.892 167.8 397.225 166.253 391.572 163.16C387.839 168.387 385.972 172.333 385.972 175C385.972 180.333 389.065 183 395.252 183H424.852C440.532 183 448.372 188.76 448.372 200.28C448.372 208.493 444.479 216.867 436.692 225.4L432.852 221.72C435.945 217.987 437.492 214.787 437.492 212.12C437.492 209.56 436.639 207.587 434.932 206.2C433.332 204.813 431.092 204.12 428.212 204.12ZM401.972 114.84C399.839 119.853 398.772 126.307 398.772 134.2C398.772 142.093 399.839 148.547 401.972 153.56C404.212 158.573 407.465 161.08 411.732 161.08C415.999 161.08 419.199 158.573 421.332 153.56C423.572 148.547 424.692 142.093 424.692 134.2C424.692 126.307 423.572 119.853 421.332 114.84C419.199 109.827 415.999 107.32 411.732 107.32C407.465 107.32 404.212 109.827 401.972 114.84ZM480.231 103C488.977 103 496.871 105.667 503.911 111C507.964 107.16 512.124 104.493 516.391 103C520.657 101.4 526.097 100.6 532.711 100.6C539.431 100.6 544.871 102.733 549.031 107C553.297 111.16 555.431 116.867 555.431 124.12V165.24C555.431 168.12 556.124 170.413 557.511 172.12C558.897 173.72 561.031 174.52 563.911 174.52C566.791 174.52 570.097 172.973 573.831 169.88L576.711 173.72C568.177 181.507 559.644 185.4 551.111 185.4C537.991 185.4 531.431 177.56 531.431 161.88V120.76C531.431 117.453 530.417 114.893 528.391 113.08C526.364 111.267 523.537 110.36 519.911 110.36C516.391 110.36 512.871 111.8 509.351 114.68C505.937 117.56 504.231 121.293 504.231 125.88V183H480.231V109.4C475.431 109.4 471.164 110.2 467.431 111.8L465.191 105.88C469.777 103.96 474.791 103 480.231 103ZM632.684 77.4V71H667.884C694.124 71 710.551 77.2933 717.164 89.88C719.831 94.7867 721.164 100.76 721.164 107.8C721.164 114.84 719.831 120.813 717.164 125.72C714.604 130.627 710.818 134.413 705.804 137.08C696.418 142.093 683.778 144.6 667.884 144.6H666.284V176.6H679.084V183H632.684V176.6H642.284V77.4H632.684ZM667.884 77.4H666.284V138.2H667.884C676.311 138.2 683.298 135.533 688.844 130.2C694.391 124.867 697.164 117.4 697.164 107.8C697.164 98.2 694.391 90.7333 688.844 85.4C683.298 80.0667 676.311 77.4 667.884 77.4ZM822.317 103V165.24C822.317 168.12 823.01 170.413 824.397 172.12C825.784 173.72 827.917 174.52 830.797 174.52C833.677 174.52 836.984 172.973 840.717 169.88L843.597 173.72C835.064 181.507 826.53 185.4 817.997 185.4C807.864 185.4 801.624 180.653 799.277 171.16C793.73 180.653 785.57 185.4 774.797 185.4C762.53 185.4 753.197 181.453 746.797 173.56C740.397 165.56 737.197 155.427 737.197 143.16C737.197 130.787 740.61 120.6 747.437 112.6C754.37 104.6 764.024 100.6 776.397 100.6C785.89 100.6 793.197 104.387 798.317 111.96V103H822.317ZM766.477 118.68C763.49 124.653 761.997 132.76 761.997 143C761.997 153.24 763.49 161.347 766.477 167.32C769.464 173.293 773.997 176.28 780.077 176.28C786.264 176.28 790.957 173.293 794.157 167.32C797.464 161.24 799.117 153.133 799.117 143C799.117 132.867 797.464 124.813 794.157 118.84C790.957 112.76 786.264 109.72 780.077 109.72C773.997 109.72 769.464 112.707 766.477 118.68ZM840.391 71.16C843.484 67.96 847.377 65.4 852.071 63.48C856.871 61.56 861.564 60.6 866.151 60.6C870.844 60.6 874.684 61.56 877.671 63.48C880.657 65.2933 882.151 67.5867 882.151 70.36V165.24C882.151 168.12 882.844 170.413 884.231 172.12C885.617 173.72 887.751 174.52 890.631 174.52C893.511 174.52 896.817 172.973 900.551 169.88L903.431 173.72C894.897 181.507 886.364 185.4 877.831 185.4C864.711 185.4 858.151 177.56 858.151 161.88V68.28C852.284 69.7733 847.804 72.3867 844.711 76.12L840.391 71.16ZM995.754 103V165.24C995.754 168.12 996.448 170.413 997.834 172.12C999.221 173.72 1001.35 174.52 1004.23 174.52C1007.11 174.52 1010.42 172.973 1014.15 169.88L1017.03 173.72C1008.5 181.507 999.968 185.4 991.434 185.4C981.301 185.4 975.061 180.653 972.714 171.16C967.168 180.653 959.008 185.4 948.234 185.4C935.968 185.4 926.634 181.453 920.234 173.56C913.834 165.56 910.634 155.427 910.634 143.16C910.634 130.787 914.048 120.6 920.874 112.6C927.808 104.6 937.461 100.6 949.834 100.6C959.328 100.6 966.634 104.387 971.754 111.96V103H995.754ZM939.914 118.68C936.928 124.653 935.434 132.76 935.434 143C935.434 153.24 936.928 161.347 939.914 167.32C942.901 173.293 947.434 176.28 953.514 176.28C959.701 176.28 964.394 173.293 967.594 167.32C970.901 161.24 972.554 153.133 972.554 143C972.554 132.867 970.901 124.813 967.594 118.84C964.394 112.76 959.701 109.72 953.514 109.72C947.434 109.72 942.901 112.707 939.914 118.68ZM1066.79 185.4C1054.09 185.4 1043.8 181.347 1035.91 173.24C1028.12 165.027 1024.23 154.947 1024.23 143C1024.23 131.053 1028.12 121.027 1035.91 112.92C1043.8 104.707 1054.04 100.6 1066.63 100.6C1073.67 100.6 1080.55 102.627 1087.27 106.68C1093.99 110.733 1097.35 116.227 1097.35 123.16C1097.35 126.68 1096.07 129.72 1093.51 132.28C1091.05 134.733 1088.07 135.96 1084.55 135.96C1081.03 135.96 1077.99 134.733 1075.43 132.28C1072.97 129.72 1071.75 126.84 1071.75 123.64C1071.75 120.44 1072.6 117.72 1074.31 115.48C1076.01 113.24 1078.25 111.693 1081.03 110.84C1078.04 109.56 1074.63 108.92 1070.79 108.92C1063.64 108.92 1058.2 112.12 1054.47 118.52C1050.84 124.813 1049.03 132.867 1049.03 142.68C1049.03 152.387 1050.84 160.28 1054.47 166.36C1058.2 172.44 1063.64 175.48 1070.79 175.48C1080.39 175.48 1088.55 171.48 1095.27 163.48L1099.75 166.36C1096.23 172.12 1091.59 176.76 1085.83 180.28C1080.17 183.693 1073.83 185.4 1066.79 185.4ZM1147.51 146.04C1154.45 145.4 1159.78 142.787 1163.51 138.2C1167.35 133.507 1169.27 128.813 1169.27 124.12C1169.27 119.32 1168.21 115.64 1166.07 113.08C1164.05 110.52 1160.9 109.24 1156.63 109.24C1152.47 109.24 1148.47 112.227 1144.63 118.2C1140.79 124.173 1138.87 132.173 1138.87 142.2C1138.87 152.227 1140.69 160.28 1144.31 166.36C1147.94 172.44 1153.11 175.48 1159.83 175.48C1170.07 175.48 1178.77 171.48 1185.91 163.48L1190.39 166.36C1186.77 172.12 1181.97 176.76 1175.99 180.28C1170.02 183.693 1163.3 185.4 1155.83 185.4C1143.14 185.4 1133.01 181.24 1125.43 172.92C1117.86 164.493 1114.07 154.36 1114.07 142.52C1114.07 130.68 1118.07 120.76 1126.07 112.76C1134.18 104.653 1145.38 100.6 1159.67 100.6C1169.06 100.6 1176.42 102.787 1181.75 107.16C1187.09 111.533 1189.75 117.08 1189.75 123.8C1189.75 130.52 1186.77 136.76 1180.79 142.52C1174.93 148.173 1167.14 151 1157.43 151C1154.13 151 1150.93 150.627 1147.83 149.88L1147.51 146.04Z" fill="black"/>
</svg>
</svg>
